<?xml version="1.0" encoding="utf-8"?>
<!-- Generator: Adobe Illustrator 27.0.0, SVG Export Plug-In . SVG Version: 6.00 Build 0)  -->
<svg version="1.1" id="图层_1" xmlns="http://www.w3.org/2000/svg" xmlns:xlink="http://www.w3.org/1999/xlink" x="0px" y="0px"
	 viewBox="0 0 314.43 81.77" style="enable-background:new 0 0 314.43 81.77;" xml:space="preserve">
<style type="text/css">
	.st0{fill:#231815;}
</style>
<g>
	<g>
		<path class="st0" d="M145.33,23.75v27.74h-7.57V33.92L126.46,49h-6.5l-11.3-15.08v17.57h-7.57V23.75h7.86l14.25,19.44l14.25-19.44
			H145.33z"/>
		<path class="st0" d="M185.23,23.75v6.18h-26.69v4.54h23.12v6.07h-23.12v4.78h26.69v6.18h-34.26V23.75H185.23z"/>
		<path class="st0" d="M217.7,23.75c2.69,0,4.98,0.86,6.88,2.59c1.9,1.73,2.85,3.81,2.85,6.26c0,2.25-0.82,4.21-2.47,5.87
			c-1.65,1.62-3.7,2.57-6.15,2.85l9.03,10.16h-8.81l-8.34-10.06h-12.66v10.06h-7.57V23.75H217.7z M198.04,35.31l18.93,0.02
			c0.89,0,1.6-0.26,2.13-0.77c0.57-0.53,0.84-1.17,0.83-1.94c0.01-0.81-0.26-1.46-0.83-1.94c-0.53-0.54-1.24-0.79-2.13-0.75h-18.93
			V35.31z"/>
		<path class="st0" d="M254.27,23.75l17.62,27.74h-8.16l-3.83-6.07h-18.77l-3.87,6.07h-8.14l17.62-27.74H254.27z M244.86,39.54h11.3
			l-5.63-8.91L244.86,39.54z"/>
		<path class="st0" d="M281.95,23.75v11.91l18.49-11.91h12.45l-21.2,13.02l22.74,14.72h-12.45l-20.03-13.57v13.57h-7.57V23.75
			H281.95z"/>
	</g>
	<g>
		<path class="st0" d="M0,35.49v46.29c0,0,35.18-34.69,36.16-35.68c4.43-4.48,9.06-4.12,8.95,1.37c-0.01,0.37,0.02,6.61,0.02,6.61
			s0-47.77,0-49.09c0-4.02-5.98-7.36-10.54-2.76C30.86,5.99,0,35.49,0,35.49z"/>
		<g>
			<path class="st0" d="M90.24,37.8c0-6.74-5.69-5.95-8.97-2.63c-0.98,0.99-36.15,35.68-36.16,35.68v10.93
				c0,0,35.18-34.69,36.16-35.68c3.28-3.32,8.97-4.11,8.97,2.63C90.24,48.73,90.24,29.09,90.24,37.8z"/>
		</g>
		<g>
			<path class="st0" d="M89.66,2.83c-0.25-0.44-0.57-0.85-0.94-1.21c-0.25-0.24-0.54-0.45-0.83-0.65c-0.07-0.05-0.15-0.1-0.23-0.14
				c-0.31-0.18-0.63-0.35-0.97-0.48c-0.9-0.33-1.92-0.44-2.96-0.29c0.15-0.02,0.3-0.06,0.45-0.07c-0.3,0.02-0.59,0.07-0.89,0.13
				c-0.3,0.07-0.6,0.16-0.9,0.28c-0.91,0.35-1.81,0.94-2.66,1.8c-3.72,3.76-34.59,33.76-34.59,33.76v22.41c0,0,0.04-0.04,0.1-0.09
				c0.07-0.07,0.19-0.19,0.35-0.34c0.36-0.36,0.95-0.94,1.71-1.68c0.4-0.4,0.85-0.84,1.35-1.33c0.52-0.52,1.1-1.08,1.71-1.69
				c1.98-1.95,4.38-4.32,6.97-6.88c0.59-0.58,1.18-1.16,1.78-1.76c5.1-5.03,10.65-10.5,14.93-14.73c0.83-0.82,1.61-1.59,2.33-2.3
				c1.63-1.61,2.96-2.92,3.82-3.77c0.41-0.41,0.73-0.72,0.91-0.91c0.1-0.09,0.16-0.16,0.19-0.19c3.28-3.32,8.97-4.11,8.97,2.63
				c0-8.71,0-19.59,0-20.37C90.24,4.22,90.03,3.49,89.66,2.83z"/>
			<path class="st0" d="M88.72,1.62c-0.25-0.24-0.53-0.45-0.83-0.65C88.18,1.17,88.47,1.38,88.72,1.62z"/>
			<path class="st0" d="M87.66,0.83c-0.31-0.18-0.63-0.35-0.97-0.48C87.03,0.48,87.35,0.65,87.66,0.83z"/>
		</g>
		<path class="st0" d="M103.26,61.41c-8.68,0-13.02,4.56-13.02,13.69c0-9.13-4.34-13.69-13.02-13.69c8.68,0,13.02-4.56,13.02-13.69
			C90.24,56.85,94.58,61.41,103.26,61.41z"/>
	</g>
</g>
</svg>
