<?xml version="1.0" encoding="utf-8"?>
<!-- Generator: Adobe Illustrator 27.0.0, SVG Export Plug-In . SVG Version: 6.00 Build 0)  -->
<svg version="1.1" id="图层_1" xmlns="http://www.w3.org/2000/svg" xmlns:xlink="http://www.w3.org/1999/xlink" x="0px" y="0px"
	 viewBox="0 0 383.1 112.4" style="enable-background:new 0 0 383.1 112.4;" xml:space="preserve">
<style type="text/css">
	.st0{fill:#231815;}
	.st1{clip-path:url(#SVGID_00000091701416791194796340000009502293722331078824_);}
	.st2{opacity:2.000000e-02;}
	.st3{opacity:0.1;}
	.st4{opacity:0.15;}
	.st5{opacity:0.2;}
	.st6{opacity:0.25;}
	.st7{opacity:0.3;}
	.st8{fill:#FFFFFF;}
</style>
<g>
	<g>
		<g>
			<path class="st0" d="M216.7,60.1c2.1,0,4,0.5,5.8,1.4c1.8,0.9,3.2,2.2,4.2,3.7c1,1.6,1.5,3.3,1.5,5.1c0,1.8-0.5,3.6-1.6,5.1
				c-1,1.6-2.4,2.8-4.2,3.7c-1.8,0.9-3.7,1.3-5.8,1.3h-21.8v9.3h-8.3V60.1H216.7z M194.9,74h21c1.2,0,2.2-0.4,2.9-1
				c0.8-0.7,1.2-1.6,1.2-2.6c0-1.1-0.4-1.9-1.2-2.6c-0.8-0.7-1.7-1-2.9-1h-21V74z"/>
			<path class="st0" d="M195.2,90.2h-9.1V59.8h30.5c2.2,0,4.2,0.5,6,1.4c1.8,0.9,3.3,2.2,4.4,3.9c1.1,1.6,1.6,3.4,1.6,5.3
				c0,1.9-0.5,3.7-1.6,5.3c-1,1.6-2.5,2.9-4.3,3.8c-1.8,0.9-3.8,1.4-6,1.4h-21.4V90.2z M186.9,89.4h7.6v-9.3h22.2
				c2,0,3.9-0.4,5.6-1.3c1.7-0.9,3.1-2.1,4-3.6c1-1.5,1.5-3.2,1.5-4.9c0-1.8-0.5-3.4-1.5-4.9c-1-1.5-2.4-2.7-4.1-3.6
				c-1.7-0.9-3.6-1.3-5.6-1.3h-29.8V89.4z M194.9,74.3h-0.4v-8h21.4c1.3,0,2.4,0.4,3.2,1.1c0.8,0.7,1.3,1.7,1.3,2.9
				c0,1.1-0.4,2.1-1.3,2.9c-0.8,0.7-1.9,1.1-3.2,1.1H194.9z M195.2,73.6h20.7c1.1,0,2-0.4,2.7-0.9c0.7-0.6,1-1.4,1-2.3
				c0-1-0.3-1.7-1-2.3c-0.7-0.6-1.5-0.9-2.6-0.9c0,0,0,0-0.1,0h-20.7V73.6z"/>
		</g>
		<g>
			<path class="st0" d="M245.2,60.1v11.1h24.7V60.1h8.3v29.7h-8.3v-12h-24.7v12h-8.3V60.1H245.2z"/>
			<path class="st0" d="M278.6,90.2h-9.1v-12h-23.9v12h-9.1V59.8h9.1v11.1h23.9V59.8h9.1V90.2z M270.2,89.4h7.6V60.5h-7.6v11.1
				h-25.4V60.5h-7.6v28.9h7.6v-12h25.4V89.4z"/>
		</g>
		<g>
			<path class="st0" d="M313.2,60.1l19.4,29.7h-9l-4.2-6.5h-20.7l-4.3,6.5h-9l19.4-29.7H313.2z M302.8,77h12.4l-6.2-9.5L302.8,77z"
				/>
			<path class="st0" d="M333.2,90.2h-9.9l-4.2-6.5h-20.3l-4.3,6.5h-9.9l19.9-30.4h8.7l0.1,0.2L333.2,90.2z M323.8,89.4h8.1
				l-18.9-28.9h-7.9l-18.9,28.9h8.1l4.3-6.5h21.1L323.8,89.4z M315.9,77.4h-13.8l6.9-10.6L315.9,77.4z M303.5,76.6h11.1l-5.5-8.5
				L303.5,76.6z"/>
		</g>
		<g>
			<path class="st0" d="M372.2,60.1c1.8,0,3.5,0.4,5.1,1.1c1.7,0.8,3,1.8,3.9,3.2c1,1.3,1.5,2.8,1.5,4.4v12.3c0,1.6-0.5,3-1.5,4.4
				c-1,1.3-2.3,2.4-3.9,3.2c-1.6,0.8-3.3,1.1-5.1,1.1h-32.4V60.1H372.2z M348.1,83.2h22.3c1.1,0,2-0.4,2.8-1
				c0.8-0.7,1.1-1.5,1.1-2.4v-9.5c0-1-0.4-1.8-1.1-2.5c-0.7-0.7-1.7-1-2.8-1h-22.3V83.2z"/>
			<path class="st0" d="M372.2,90.2h-32.8V59.8h32.8c1.9,0,3.6,0.4,5.3,1.2c1.7,0.8,3.1,1.9,4.1,3.3c1.1,1.4,1.6,2.9,1.5,4.6v12.3
				c0,1.6-0.5,3.2-1.6,4.6c-1,1.4-2.4,2.5-4,3.3C375.9,89.8,374.1,90.2,372.2,90.2z M340.2,89.4h32.1c1.8,0,3.4-0.4,4.9-1.1
				c1.6-0.7,2.8-1.8,3.8-3c1-1.3,1.5-2.7,1.4-4.1V68.8c0-1.5-0.4-2.9-1.4-4.1c-0.9-1.3-2.2-2.3-3.8-3c-1.6-0.7-3.2-1.1-5-1.1h-32.1
				V89.4z M348.1,83.6h-0.4V66.4h22.7c1.2,0,2.2,0.3,3,1.1c0.8,0.7,1.3,1.6,1.3,2.7v9.5c0,1-0.4,2-1.3,2.7c-0.8,0.7-1.8,1.1-3,1.1
				L348.1,83.6z M348.5,82.8h22c1,0,1.9-0.3,2.5-0.9c0.7-0.6,1-1.3,1-2.2v-9.5c0-0.9-0.3-1.6-1-2.2c-0.7-0.7-1.5-0.9-2.5-0.9l-22,0
				V82.8z"/>
		</g>
	</g>
	<g>
		<g>
			<path class="st0" d="M45.8,112.4l11-23.6L94.9,7.5h79.3c6,0,9.5,6,6.7,11.6l-22.1,44.7c-2.7,5.4-8.2,9-14,9h-42.7l-18.4,39.6
				H45.8z M124.7,77.5c0.7,0.3,1.5-0.1,1.9-0.8c5.3-10.6,10.7-21.4,16.2-23.3c5.6-1.9,12.7-0.1,22.9,3.8c0.7,0.3,1.5-0.1,1.9-0.8
				l0,0c0.4-0.7,0.1-1.5-0.6-1.8c-10.2-4-16.9-7.7-18.6-12.9c-1.8-5.1,10.4-29.1,15.6-39.8c0.3-0.7,0.1-1.5-0.6-1.8l0,0
				c-0.7-0.3-1.5,0.1-1.9,0.8c-5.3,10.6-18.6,34.5-24,36.9c-0.5,0.2-2,0.8-3.6,0.5c-15.7-2-74.3-22.6-83.5-26.1
				c-0.7-0.3-1.5,0.1-1.9,0.8l0,0c-0.4,0.7-0.1,1.5,0.6,1.8c9.4,3.7,69.3,25.7,80.8,33c1.4,0.9,1.7,1.7,1.9,2.1
				c1.3,3.2-2.5,15.1-7.6,25.7C123.8,76.4,124,77.2,124.7,77.5L124.7,77.5z"/>
		</g>
		<g>
			<defs>
				<polygon id="SVGID_1_" points="0,112.4 49.1,7.5 95,7.5 45.9,112.4 				"/>
			</defs>
			<clipPath id="SVGID_00000119801506146682234710000004094574799573302184_">
				<use xlink:href="#SVGID_1_"  style="overflow:visible;"/>
			</clipPath>
			<g style="clip-path:url(#SVGID_00000119801506146682234710000004094574799573302184_);">
				<g class="st2">
					<path class="st0" d="M2.5,112.4l11-23.6L51.7,7.5h84c6,0,9.5,6,6.7,11.6l-22.4,45.3c-2.7,5.4-8.2,9-14,9H58.6l-18.1,39H2.5z"/>
				</g>
				<g class="st3">
					<path class="st0" d="M11.3,112.4l11-23.6L60.4,7.5h84c6,0,9.5,6,6.7,11.6l-22.4,45.3c-2.7,5.4-8.2,9-14,9H67.3l-18.1,39H11.3z"
						/>
				</g>
				<g class="st4">
					<path class="st0" d="M19.5,112.4l11-23.6L68.7,7.5h84c6,0,9.5,6,6.7,11.6l-22.4,45.3c-2.7,5.4-8.2,9-14,9H75.6l-18.1,39H19.5z"
						/>
				</g>
				<g class="st5">
					<path class="st0" d="M26.1,112.4l11-23.6L75.3,7.5h84c6,0,9.5,6,6.7,11.6l-22.4,45.3c-2.7,5.4-8.2,9-14,9H82.2l-18.1,39H26.1z"
						/>
				</g>
				<g class="st6">
					<path class="st0" d="M32.7,112.4l11-23.6L81.8,7.5h84c6,0,9.5,6,6.7,11.6l-22.4,45.3c-2.7,5.4-8.2,9-14,9H88.7l-18.1,39H32.7z"
						/>
				</g>
				<g class="st7">
					<path class="st0" d="M39.3,112.4l11-23.6L88.4,7.5h84c6,0,9.5,6,6.7,11.6l-22.4,45.3c-2.7,5.4-8.2,9-14,9H95.3l-18.1,39H39.3z"
						/>
				</g>
				<g class="st7">
					<path class="st8" d="M45.9,112.4l11-23.6L95,7.5h84c6,0,9.5,6,6.7,11.6l-22.4,45.3c-2.7,5.4-8.2,9-14,9h-47.3l-18.1,39H45.9z"
						/>
				</g>
			</g>
		</g>
	</g>
</g>
</svg>
